<?xml version="1.0" encoding="UTF-8"?>
<svg width="34px" height="32px" viewBox="0 0 34 32" version="1.1" xmlns="http://www.w3.org/2000/svg" xmlns:xlink="http://www.w3.org/1999/xlink">
    <title>enter@1x</title>
    <g id="1.-Design" stroke="none" stroke-width="1" fill="none" fill-rule="evenodd">
        <g id="HP" transform="translate(-1090.000000, -535.000000)" fill="#FE6600" fill-rule="nonzero">
            <g id="TOP-STORY" transform="translate(308.000000, 72.000000)">
                <g id="enter" transform="translate(782.000000, 463.000000)">
                    <path d="M21.9218709,17 L1.07812911,17 C0.482999754,17 0,16.5520019 0,16 C0,15.4479981 0.482999754,15 1.07812911,15 L21.9218709,15 C22.5170002,15 23,15.4479981 23,16 C23,16.5520019 22.5170002,17 21.9218709,17 Z" id="Path"></path>
                    <path d="M16.090546,23 C15.8111851,23 15.5320906,22.8926232 15.3195739,22.6759809 C14.8934754,22.2443151 14.8934754,21.544477 15.3195739,21.1125414 L20.3664448,16 L15.3195739,10.8871888 C14.8934754,10.455523 14.8934754,9.75541509 15.3195739,9.32374933 C15.7459387,8.89208356 16.436751,8.89208356 16.8628496,9.32374933 L22.6804261,15.2176058 C23.1065246,15.6492716 23.1065246,16.3491097 22.6804261,16.7807755 L16.8628496,22.6743622 C16.6490013,22.8926232 16.3699068,23 16.090546,23 L16.090546,23 Z" id="Path"></path>
                    <path d="M17.4666725,32 C10.6262921,32 4.58732735,28.0175114 2.0787751,21.8529505 C1.85034957,21.2944486 2.13574389,20.6603079 2.7145135,20.4392509 C3.29163195,20.2211236 3.94856161,20.4930504 4.17698715,21.0560799 C6.34290117,26.3782272 11.5598093,29.8181939 17.4666725,29.8181939 C25.3393711,29.8181939 31.7454679,23.6187433 31.7454679,16 C31.7454679,8.38125674 25.3393711,2.18180607 17.4666725,2.18180607 C11.5598093,2.18180607 6.34290117,5.62177278 4.17698715,10.9439201 C3.94691038,11.5069496 3.29163195,11.7788764 2.7145135,11.5607491 C2.13574389,11.3396921 1.85034957,10.7055514 2.0787751,10.1470495 C4.58732735,3.9824886 10.6262921,0 17.4666725,0 C26.5825012,0 34,7.17822721 34,16 C34,24.8217728 26.5825012,32 17.4666725,32 Z" id="Path"></path>
                </g>
            </g>
        </g>
    </g>
</svg>